<svg xmlns="http://www.w3.org/2000/svg" style="display: none;"><symbol id="down-arrow" viewBox="0 0 256 256"><title>down-arrow</title><polygon points="225.813,48.907 128,146.72 30.187,48.907 0,79.093 128,207.093 256,79.093 "/></symbol><symbol id="diamond" viewBox="0 0 24 24"><title>diamond</title><path d="m12 23c-.147 0-.287-.065-.383-.178l-11.5-13.659c-.133-.158-.155-.382-.056-.562l4.032-7.341c.088-.16.256-.26.438-.26h14.938c.183 0 .351.1.438.26l4.031 7.341c.1.181.077.404-.056.562l-11.5 13.659c-.095.113-.235.178-.382.178zm-10.896-14.219 10.896 12.943 10.896-12.943-3.723-6.781h-14.346z"/><path d="m23.25 9.5h-22.5c-.276 0-.5-.224-.5-.5s.224-.5.5-.5h22.5c.276 0 .5.224.5.5s-.224.5-.5.5z"/><path d="m17.062 9.219c-.157 0-.312-.074-.409-.213l-4.651-6.633-4.592 6.598c-.156.227-.469.282-.695.125-.228-.158-.283-.469-.125-.696l5-7.186c.093-.134.246-.214.409-.214h.001c.163 0 .315.079.409.213l5.062 7.219c.159.227.104.538-.122.696-.086.061-.187.091-.287.091z"/><path d="m12 23c-.212 0-.4-.133-.471-.332l-7.469-21c-.092-.261.044-.547.303-.639.262-.096.547.043.639.303l6.998 19.676 6.998-19.676c.092-.259.377-.397.639-.303.26.092.396.378.303.639l-7.469 21c-.071.199-.259.332-.471.332z"/></symbol><symbol id="fruit" viewBox="0 0 512.001 512.001"><title>fruit</title><path d="M373.166,118.1c-31.502-5.081-62.938,1.645-89.566,18.975c7.943-17.452,20.373-33.236,37.183-47.151 c20.025-16.576,39.025-24.13,39.18-24.191c7.864-3.04,11.774-11.88,8.734-19.744c-3.039-7.863-11.876-11.775-19.744-8.734 c-2.406,0.93-40.224,15.967-70.092,51.072c-1.12-5.526-2.683-11.088-4.799-16.602C256.29,25.429,207.467,2.373,205.398,1.414 c-3.746-1.735-8.035-1.879-11.889-0.401c-3.853,1.48-6.944,4.457-8.566,8.252c-0.897,2.099-21.751,51.901-3.979,98.197 c1.602,4.172,3.458,8.152,5.507,11.947c-15.439-3.414-31.528-3.909-47.635-1.31C68.204,129.496,19.73,197.669,30.78,270.073 c7.865,51.537,19.363,95.802,34.179,131.562c16.803,40.562,38.026,70.384,63.079,88.641 c19.837,14.455,41.934,21.727,65.914,21.725c6.633,0,13.414-0.557,20.327-1.672c15.953-2.573,29.928-8.421,41.722-17.433 c11.794,9.012,25.77,14.861,41.722,17.433c31.897,5.146,60.915-1.6,86.24-20.053c25.053-18.256,46.277-48.078,63.079-88.641 c14.816-35.762,26.314-80.026,34.179-131.562C492.271,197.669,443.797,129.496,373.166,118.1z M207.822,38.202 c12.638,8.744,29.767,23.703,37.737,44.464c7.92,20.631,5.178,43.308,1.646,58.319c-12.637-8.743-29.766-23.702-37.736-44.464 C201.548,75.891,204.29,53.215,207.822,38.202z M451.04,265.467c-15.518,101.689-44.929,170.894-85.057,200.133 c-18.763,13.672-39.501,18.445-63.399,14.587c-14.646-2.362-26.215-8.329-35.371-18.241c-2.89-3.127-6.955-4.906-11.214-4.906 s-8.324,1.779-11.214,4.906c-9.155,9.912-20.725,15.878-35.371,18.241c-23.898,3.853-44.635-0.915-63.399-14.587 c-40.128-29.239-69.539-98.444-85.057-200.133c-8.531-55.902,28.586-108.489,82.738-117.225 c5.196-0.839,10.393-1.253,15.551-1.253c21.081,0,41.527,6.926,58.814,20.135c22.336,17.067,53.537,17.067,75.874,0 c21.518-16.441,47.93-23.149,74.365-18.882h0.001C422.455,156.979,459.571,209.566,451.04,265.467z"/></symbol><symbol id="anchor" viewBox="0 0 510.935 510.935"><title>anchor</title><path d="m483.727 290.926-22.229-40.413c-1.995-3.63-6.56-4.954-10.186-2.957-3.63 1.996-4.953 6.557-2.957 10.186l19.461 35.381h-28.581c-4.143 0-7.5 3.357-7.5 7.5v34.646c0 12.656-1.851 25.219-5.502 37.338-13.816 45.859-51.576 80.184-98.543 89.577l-48.199 9.64c-1.5.3-2.872 1.052-3.933 2.153l-20.483 21.282-19.597-21.175c-1.073-1.16-2.485-1.951-4.034-2.261l-48.199-9.64c-46.967-9.394-84.727-43.718-98.543-89.578-3.651-12.118-5.502-24.681-5.502-37.337v-34.646c0-4.143-3.357-7.5-7.5-7.5h-28.61l48.25-88.628 48.251 88.628h-25.184c-4.143 0-7.5 3.357-7.5 7.5v40.45c0 17.684 7.635 34.505 20.946 46.149 17.291 15.124 42.529 16.509 61.374 3.37 5.741-4.004 10.492-9.068 14.12-15.053l27.197-44.85c3.299-5.443 5.043-11.685 5.043-18.048v-140.895c0-4.143-3.357-7.5-7.5-7.5h-51.643c-.326 0-.591-.266-.591-.592v-27.462c0-.326.265-.591.591-.591h51.763c4.143 0 7.5-3.357 7.5-7.5v-25.67c0-2.607-1.354-5.028-3.577-6.393-13.087-8.031-20.9-21.976-20.9-37.303 0-6.361 1.349-12.512 4.008-18.28 1.734-3.762.091-8.218-3.67-9.951-3.765-1.737-8.218-.091-9.951 3.67-3.574 7.752-5.387 16.016-5.387 24.562 0 19.145 9.074 36.682 24.478 47.714v14.151h-44.263c-8.597 0-15.591 6.994-15.591 15.591v27.462c0 8.598 6.994 15.592 15.591 15.592h44.143v133.396c0 3.622-.993 7.174-2.87 10.271l-27.196 44.849c-2.537 4.185-5.859 7.727-9.874 10.525-13.177 9.189-30.826 8.222-42.918-2.355-10.056-8.796-15.822-21.502-15.822-34.859v-32.95h23.398c4.146 0 7.879-2.13 9.989-5.698 2.109-3.568 2.177-7.866.194-11.47l-52.988-97.33c-2.239-4.07-6.516-6.6-11.16-6.6-4.646 0-8.922 2.529-11.177 6.628l-52.956 97.271c-1.999 3.631-1.933 7.93.177 11.498 2.109 3.569 5.845 5.7 9.99 5.7h26.825v27.146c0 14.123 2.065 28.141 6.14 41.664 15.418 51.176 57.554 89.478 109.964 99.96l45.816 9.163 19.013 20.544c2.516 2.719 6.083 4.299 9.787 4.336h.132c3.657 0 7.201-1.505 9.74-4.143l19.944-20.722 45.896-9.179c52.41-10.482 94.547-48.785 109.965-99.961 4.073-13.522 6.139-27.54 6.139-41.663v-27.146h26.824c4.146 0 7.881-2.131 9.99-5.7 2.109-3.566 2.175-7.865.177-11.494z"/><path d="m233.943 20.391c6.93-3.809 14.809-5.644 22.743-5.358 22.608.862 41.047 19.243 41.979 41.847.646 15.665-6.835 30.1-20.01 38.611-2.139 1.382-3.43 3.754-3.43 6.3v26.311c0 4.143 3.357 7.5 7.5 7.5h51.763c.326 0 .591.265.591.591v27.462c0 .326-.265.592-.591.592h-51.643c-4.143 0-7.5 3.357-7.5 7.5v41.381c0 4.143 3.357 7.5 7.5 7.5s7.5-3.357 7.5-7.5v-33.881h44.143c8.597 0 15.591-6.994 15.591-15.592v-27.462c0-8.597-6.994-15.591-15.591-15.591h-44.263v-14.906c15.329-11.545 24.223-30.117 23.426-49.433-1.251-30.366-26.022-55.061-56.394-56.218-10.658-.413-21.228 2.082-30.54 7.201-3.63 1.994-4.955 6.555-2.961 10.185 1.997 3.628 6.556 4.953 10.187 2.96z"/><path d="m373.206 375.931c-12.093 10.576-29.744 11.547-42.919 2.356-4.015-2.799-7.337-6.341-9.874-10.525l-27.195-44.848c-1.878-3.099-2.871-6.65-2.871-10.272v-67.553c0-4.143-3.357-7.5-7.5-7.5s-7.5 3.357-7.5 7.5v67.553c0 6.363 1.744 12.604 5.044 18.049l27.196 44.849c3.628 5.984 8.379 11.049 14.12 15.053 8.631 6.019 18.602 8.989 28.537 8.989 11.757 0 23.465-4.162 32.838-12.36 13.311-11.644 20.945-28.465 20.945-46.148v-40.45c0-4.143-3.357-7.5-7.5-7.5h-25.155l48.222-87.666 13.354 24.275c1.995 3.628 6.556 4.954 10.187 2.956 3.629-1.996 4.952-6.557 2.956-10.187l-15.335-27.877c-2.239-4.071-6.516-6.6-11.16-6.6-4.646 0-8.922 2.528-11.161 6.6l-52.973 96.302c-1.998 3.632-1.931 7.93.179 11.498s5.844 5.698 9.989 5.698h23.398v32.95c-.001 13.357-5.768 26.063-15.822 34.858z"/><path d="m283.704 58.736c0-15.846-12.891-28.736-28.736-28.736s-28.736 12.891-28.736 28.736 12.891 28.736 28.736 28.736 28.736-12.891 28.736-28.736zm-28.737 13.736c-7.574 0-13.736-6.162-13.736-13.736s6.162-13.736 13.736-13.736 13.736 6.162 13.736 13.736-6.161 13.736-13.736 13.736z"/></symbol><symbol id="app" viewBox="0 0 512 512"><title>app</title><path d="m360 8h-208a32.042 32.042 0 0 0 -32 32v432a32.042 32.042 0 0 0 32 32h208a32.042 32.042 0 0 0 32-32v-432a32.042 32.042 0 0 0 -32-32zm-66.56 16-4.5 16h-66.69l-4-16zm82.56 448a16.021 16.021 0 0 1 -16 16h-208a16.021 16.021 0 0 1 -16-16v-432a16.021 16.021 0 0 1 16-16h49.75l6.49 25.94a8 8 0 0 0 7.76 6.06h79a8 8 0 0 0 7.7-5.83l7.36-26.17h49.94a16.021 16.021 0 0 1 16 16z"/><path d="m216 456h-56a8 8 0 0 0 0 16h56a8 8 0 0 0 0-16z"/><path d="m248 456h-8a8 8 0 0 0 0 16h8a8 8 0 0 0 0-16z"/><path d="m284.116 209.14a8 8 0 0 0 -10.976 2.744l-48 80a8 8 0 1 0 13.72 8.232l48-80a8 8 0 0 0 -2.744-10.976z"/><path d="m310.247 211a8 8 0 0 0 -12.494 10l28 35-28 35a8 8 0 0 0 12.494 10l32-40a8 8 0 0 0 0-10z"/><path d="m201.753 301a8 8 0 1 0 12.494-10l-28-35 28-35a8 8 0 1 0 -12.494-10l-32 40a8 8 0 0 0 0 10z"/></symbol><symbol id="database" viewBox="0 0 407.005 407.005"><title>database</title><g> <g> <path d="M305.178,15.32C277.876,5.439,241.761,0,203.522,0S129.14,5.439,101.837,15.32C62.754,29.464,54.503,47.574,54.503,60.275 v286.45c0,12.707,8.24,30.821,47.32,44.962c27.3,9.876,63.412,15.316,101.661,15.316c22.453,0.077,44.864-1.935,66.945-6.008 c52.129-10,82.074-29.783,82.074-54.27V60.275C352.503,47.574,344.261,29.464,305.178,15.32z M108.671,34.125 C133.847,25.015,167.526,20,203.503,20c35.977,0,69.656,5.018,94.832,14.129c25.137,9.1,34.093,19.473,34.093,26.149 c0,6.676-8.956,17.048-34.093,26.145v-0.001c-25.176,9.112-58.854,14.129-94.832,14.129c-35.978,0-69.656-5.017-94.832-14.129 c-25.137-9.1-34.093-19.472-34.093-26.148S83.534,43.223,108.671,34.125z M332.503,346.725c0,5.414-5.7,11.856-15.581,17.675 c-12.04,7.093-29.436,12.955-50.272,16.953c-20.825,3.837-41.962,5.729-63.138,5.65c-35.987,0-69.71-5.016-94.879-14.123 c-25.13-9.094-34.13-19.474-34.13-26.155v-64.408c8.524,5.579,17.699,10.094,27.32,13.446 c27.3,9.876,63.412,15.316,101.661,15.316c38.249,0,74.394-5.44,101.69-15.316c9.623-3.352,18.801-7.867,27.329-13.446V346.725z M332.503,250.8c0,6.681-8.993,17.061-34.125,26.155c-25.169,9.107-58.869,14.123-94.856,14.123s-69.715-5.016-94.884-14.123 c-25.135-9.093-34.135-19.473-34.135-26.155v-63.746c8.524,5.579,17.699,10.094,27.32,13.446 c27.3,9.876,63.412,15.315,101.661,15.315c38.249,0,74.394-5.439,101.69-15.315c9.623-3.352,18.801-7.867,27.329-13.446V250.8z M332.503,155.538c0,6.681-8.993,17.062-34.125,26.155v-0.001c-25.169,9.107-58.869,14.122-94.856,14.122 s-69.719-5.014-94.884-14.122c-25.135-9.092-34.135-19.473-34.135-26.154V91.782c8.526,5.579,17.702,10.095,27.324,13.447 c27.3,9.881,63.418,15.323,101.657,15.323c38.239,0,74.382-5.442,101.685-15.323c9.625-3.352,18.804-7.868,27.334-13.447V155.538z "/> </g> </g><g> <g> <path d="M226.503,146.5h-46c-5.523,0-10,4.477-10,10s4.477,10,10,10h46c5.523,0,10-4.477,10-10S232.025,146.5,226.503,146.5z"/> </g> </g><g> <g> <path d="M226.503,240.5h-46c-5.523,0-10,4.477-10,10c0,5.523,4.477,10,10,10h46c5.523,0,10-4.477,10-10 C236.503,244.977,232.025,240.5,226.503,240.5z"/> </g> </g><g> <g> <path d="M226.503,337.5h-46c-5.523,0-10,4.477-10,10c0,5.523,4.477,10,10,10h46c5.523,0,10-4.477,10-10 C236.503,341.977,232.025,337.5,226.503,337.5z"/> </g> </g></symbol><symbol id="knowledge" viewBox="0 0 512.012 512.012"><title>knowledge</title><path d="m59.998 332.666v87.346h61v92h210v-62.218c0-56.303 12.309-115.303 37.563-179.782h32.224l25.611 25.611c-2.817 5.875-4.398 12.451-4.398 19.39 0 24.813 20.187 45 45 45s45-20.187 45-45-20.187-45-45-45c-6.938 0-13.514 1.581-19.389 4.398l-34.398-34.398h-32.572c3.497-9.779 6.115-19.796 7.843-30.01h36.096c6.192 17.469 22.865 30.01 42.42 30.01 24.813 0 45-20.187 45-45s-20.187-45-45-45c-19.555 0-36.228 12.541-42.42 30h-33.58c0-10.152-.845-20.177-2.485-30h24.698l34.398-34.397c5.875 2.817 12.45 4.398 19.389 4.398 24.813 0 45-20.187 45-45s-20.187-45-45-45-45 20.187-45 45c0 6.939 1.581 13.514 4.398 19.389l-25.611 25.61h-19.994c-24.022-68.126-88.986-119.066-167.616-120-88.723-1.043-163.221 61.684-179.498 143.168-5.685 28.455-4.837 56.601 2.51 83.77l-36.173 62.25zm407-32.654c8.271 0 15 6.729 15 15s-6.729 15-15 15-15-6.729-15-15 6.728-15 15-15zm0-120c8.271 0 15 6.729 15 15s-6.729 15-15 15-15-6.729-15-15 6.728-15 15-15zm0-120c8.271 0 15 6.729 15 15s-6.729 15-15 15-15-6.729-15-15 6.728-15 15-15zm-117.798 178.089c-.272.639-.533 1.273-.802 1.911h-92.44c6.565-8.725 11.274-18.921 13.531-30.01h88.481c-1.971 9.61-4.896 18.996-8.77 28.099zm-108.202-43.089c0 24.813-20.187 45-45 45s-45-20.187-45-45 20.187-45 45-45 45 20.187 45 45zm120-15h-91.509c-2.258-11.079-6.967-21.275-13.532-30h101.998c1.993 9.704 3.043 19.738 3.043 30zm-297.903-30.954c13.953-69.845 76.913-119.906 149.725-119.047 60.427.717 112.514 37.715 135.55 90.001h-152.372c-41.355 0-75 33.645-75 75s33.645 75 75 74.99h140.455c-23.819 63.823-35.455 122.919-35.455 179.792v32.218h-150v-92h-61v-72.655l-50.417-36.534 29.076-50.038c-.795-4.156-14.724-35.852-5.562-81.727z"/><path d="m180.998 180.012h30v30h-30z"/></symbol><symbol id="data" viewBox="0 0 512 512"><title>data</title><path d="M457,331.723c-25.127,0-46.356,16.943-52.904,40H351v-58.555h54.213c58.883,0,106.787-47.904,106.787-106.787 c0-47.211-31.312-88.685-75.764-102.193c-13.437-53.804-62.005-92.393-118.254-92.393c-21.805,0-42.693,5.623-61.127,16.366 c-19.523-17.854-45.122-27.884-72.019-27.884c-57.693,0-104.847,45.991-106.729,103.233C32.446,116.273,0,158.08,0,206.381 c0,58.883,47.904,106.787,106.787,106.787H161v58.555h-53.096c-6.547-23.057-27.777-40-52.904-40c-30.327,0-55,24.673-55,55 c0,30.327,24.673,55,55,55c25.127,0,46.356-16.943,52.904-40H176c8.284,0,15-6.716,15-15v-73.555h50v90.651 c-23.057,6.547-40,27.777-40,52.904c0,30.327,24.673,55,55,55c30.327,0,55-24.673,55-55c0-25.127-16.943-46.356-40-52.904v-90.651 h50v73.555c0,8.284,6.716,15,15,15h68.096c6.547,23.057,27.777,40,52.904,40c30.327,0,55-24.673,55-55 C512,356.396,487.327,331.723,457,331.723z M55,411.723c-13.785,0-25-11.215-25-25c0-13.785,11.215-25,25-25 c13.785,0,25,11.215,25,25C80,400.508,68.785,411.723,55,411.723z M281,456.723c0,13.785-11.215,25-25,25 c-13.785,0-25-11.215-25-25c0-13.785,11.215-25,25-25C269.785,431.723,281,442.938,281,456.723z M106.787,283.168 c-42.34,0-76.787-34.446-76.787-76.787c0-37.843,28.207-70.506,65.61-75.976c7.893-1.154,13.501-8.284,12.765-16.226 c-0.217-2.343-0.327-4.737-0.327-7.116c0-42.339,34.447-76.785,76.787-76.785c22.59,0,43.893,9.82,58.445,26.942 c5.109,6.011,14,7.037,20.345,2.349c15.732-11.628,34.528-17.774,54.356-17.774c45.628,0,83.573,33.479,90.666,77.03 c1.003,6.158,5.714,11.052,11.829,12.29c35.649,7.217,61.523,38.87,61.523,75.266c0,42.341-34.447,76.787-76.787,76.787H106.787z M457,411.723c-13.785,0-25-11.215-25-25c0-13.785,11.215-25,25-25c13.785,0,25,11.215,25,25 C482,400.508,470.785,411.723,457,411.723z"/></symbol><symbol id="team-management" viewBox="0 0 64 64"><title>team-management</title><path d="m32 45c-4.963 0-9 4.038-9 9s4.037 9 9 9 9-4.038 9-9-4.037-9-9-9zm-3.823 14.857c.499-1.661 2.045-2.857 3.823-2.857s3.324 1.196 3.823 2.857c-1.101.72-2.413 1.143-3.823 1.143s-2.722-.423-3.823-1.143zm1.823-6.857c0-1.103.897-2 2-2s2 .897 2 2-.897 2-2 2-2-.897-2-2zm7.403 5.445c-.544-1.141-1.427-2.078-2.522-2.684.69-.718 1.119-1.689 1.119-2.761 0-2.206-1.794-4-4-4s-4 1.794-4 4c0 1.072.429 2.043 1.119 2.762-1.095.606-1.977 1.542-2.522 2.684-.997-1.211-1.597-2.76-1.597-4.446 0-3.86 3.141-7 7-7s7 3.14 7 7c0 1.686-.6 3.235-1.597 4.445z"/><path d="m32 1c-4.963 0-9 4.038-9 9 0 1.165.23 2.275.634 3.298-.515-.18-1.059-.298-1.634-.298-1.654 0-3 1.347-3 3v2.472c0 1.826-.973 3.544-2.539 4.484-1.479.888-2.594 2.278-3.138 3.913l-.023.07-12.3-1.025v17.086h31c1.654 0 3-1.346 3-3 0-.395-.081-.77-.22-1.115 1.275-.347 2.22-1.502 2.22-2.885 0-.771-.301-1.468-.78-2 .48-.532.78-1.229.78-2s-.301-1.468-.78-2c.48-.532.78-1.229.78-2 0-1.653-1.345-3-2.999-3h-5.001c-1.103 0-2-.897-2-2v-5c0-.192-.036-.374-.057-.56 1.443.983 3.183 1.56 5.057 1.56 4.963 0 9-4.038 9-9s-4.037-9-9-9zm-19 40h-10v-12.913l10 .833zm16-14h5.001c.551 0 .999.449.999 1s-.448 1-1 1h-7v2h7c.552 0 1 .449 1 1s-.448 1-1 1h-7v2h7c.552 0 1 .449 1 1s-.448 1-1 1h-7v2h5c.552 0 1 .448 1 1s-.448 1-1 1h-17v-12.838l.221-.66c.394-1.183 1.199-2.188 2.27-2.83 2.165-1.299 3.51-3.675 3.51-6.199v-2.472c0-.551.449-1 1-1 1.654 0 3 1.346 3 3v5c-.001 2.205 1.793 3.999 3.999 3.999zm3-10c-3.859 0-7-3.14-7-7s3.141-7 7-7 7 3.14 7 7-3.141 7-7 7z"/><path d="m54 23c-4.963 0-9 4.038-9 9s4.037 9 9 9 9-4.038 9-9-4.037-9-9-9zm0 16c-3.859 0-7-3.14-7-7s3.141-7 7-7 7 3.14 7 7-3.141 7-7 7z"/><path d="m57 29v4h-2v-6h-2v6h-2v-2h-2v4h10v-6z"/><path d="m31 9h2v2h-2z"/><path d="m35 9h2v2h-2z"/><path d="m27 9h2v2h-2z"/><path d="m53.152 18.531 1.336 2.129 1.492-7.464-1.961-.393-.536 2.683c-2.584-3.42-5.83-5.979-10.06-7.958l-.847 1.812c4.646 2.173 8.007 5.094 10.576 9.191z"/><path d="m7.528 20.577 1.813.847c2.171-4.644 5.092-8.005 9.19-10.576l2.128-1.335-7.463-1.493-.392 1.96 2.683.537c-3.422 2.585-5.981 5.831-7.959 10.06z"/><path d="m10.848 45.469-1.336-2.129-1.492 7.464 1.961.393.536-2.683c2.584 3.42 5.83 5.979 10.06 7.958l.848-1.812c-4.647-2.173-8.008-5.094-10.577-9.191z"/><path d="m56.472 43.423-1.813-.847c-2.171 4.644-5.092 8.005-9.19 10.576l-2.128 1.335 7.463 1.493.393-1.961-2.683-.537c3.421-2.584 5.98-5.83 7.958-10.059z"/></symbol></svg>